Coordinates
version=1
nRows=6
nColumns=63
inDegrees=yes

Units are S.I. units (second, meters, Newtons, ...)
If the header above contains a line with 'inDegrees', this indicates whether rotational values are in degrees (yes) or radians (no).

endheader
time	pelvis_tilt	pelvis_list	pelvis_rotation	pelvis_tx	pelvis_ty	pelvis_tz	hip_flexion_r	hip_adduction_r	hip_rotation_r	knee_angle_r	knee_angle_r_beta	ankle_angle_r	subtalar_angle_r	mtp_angle_r	hip_flexion_l	hip_adduction_l	hip_rotation_l	knee_angle_l	knee_angle_l_beta	ankle_angle_l	subtalar_angle_l	mtp_angle_l	L5_S1_Flex_Ext	L5_S1_Lat_Bending	L5_S1_axial_rotation	L4_L5_Flex_Ext	L4_L5_Lat_Bending	L4_L5_axial_rotation	L3_L4_Flex_Ext	L3_L4_Lat_Bending	L3_L4_axial_rotation	L2_L3_Flex_Ext	L2_L3_Lat_Bending	L2_L3_axial_rotation	L1_L2_Flex_Ext	L1_L2_Lat_Bending	L1_L2_axial_rotation	L1_T12_Flex_Ext	L1_T12_Lat_Bending	L1_T12_axial_rotation	Abs_r3	Abs_r2	Abs_r1	Abs_t1	Abs_t2	neck_flexion	neck_bending	neck_rotation	arm_flex_r	arm_add_r	arm_rot_r	elbow_flex_r	pro_sup_r	wrist_flex_r	wrist_dev_r	arm_flex_l	arm_add_l	arm_rot_l	elbow_flex_l	pro_sup_l	wrist_flex_l	wrist_dev_l
0.000000	-4.366342	-3.499211	97.297326	0.090847	0.533629	0.784594	2.125717	1.170493	-6.014326	9.715977	0.169576	31.348697	4.296686	0.000000	4.659828	1.986106	2.043984	13.551545	0.236519	28.653306	-10.174258	0.000000	0.280056	-0.149191	0.795649	0.520092	-0.198424	0.845377	0.460104	-0.362742	0.845377	0.320076	-0.362742	0.696193	0.260060	-0.304230	0.646465	0.160024	-0.231096	0.596737	2.000414	-1.687675	4.425160	0.000000	0.000000	18.511753	-3.491033	18.902554	3.442490	-7.611435	49.022035	47.965981	59.670813	4.622476	3.472929	7.210902	-12.653038	57.755374	52.185241	61.993383	6.767858	7.641623
0.020833	-4.089136	-3.597949	96.818197	0.090948	0.533704	0.785182	2.381187	1.459676	-5.347174	9.702011	0.169332	31.297335	4.028340	0.000000	4.583900	1.663714	1.079340	13.210698	0.230570	28.959357	-9.479829	0.000000	0.286433	-0.111269	0.924409	0.531935	-0.147987	0.982184	0.470581	-0.270539	0.982184	0.327364	-0.270539	0.808858	0.265982	-0.226899	0.751082	0.163668	-0.172355	0.693307	2.045962	-1.258693	5.141285	0.000000	0.000000	18.560654	-3.740440	18.720906	3.124593	-7.832946	48.294062	48.206953	60.214490	4.641202	3.881138	7.395296	-12.342634	57.637820	52.028518	62.374098	7.269833	8.753747
0.041667	-3.873880	-3.685267	96.414537	0.091058	0.533719	0.785662	2.593414	1.675858	-4.856020	9.701918	0.169330	31.254082	3.891689	0.000000	4.522370	1.404331	0.225842	12.922801	0.225545	29.222300	-8.824707	0.000000	0.292515	-0.082121	1.034157	0.543229	-0.109221	1.098792	0.480573	-0.199670	1.098792	0.334315	-0.199670	0.904887	0.271629	-0.167462	0.840252	0.167143	-0.127206	0.775618	2.089404	-0.928974	5.751670	0.000000	0.000000	18.672510	-3.927606	18.547138	2.867691	-8.020055	47.721351	48.411028	60.744160	4.651063	4.190671	7.549970	-12.095227	57.569450	51.908918	62.512160	7.626234	9.735503
0.062500	-3.714584	-3.761451	96.080590	0.091174	0.533681	0.786043	2.765766	1.826384	-4.523446	9.714043	0.169542	31.218743	3.872040	0.000000	4.473814	1.202183	-0.523301	12.684198	0.221381	29.444305	-8.210993	0.000000	0.298233	-0.060877	1.125991	0.553849	-0.080967	1.196366	0.489968	-0.148018	1.196366	0.340851	-0.148018	0.985242	0.276940	-0.124141	0.914868	0.170411	-0.094299	0.844494	2.130252	-0.688658	6.262426	0.000000	0.000000	18.838510	-4.058175	18.382896	2.666123	-8.175116	47.288289	48.581455	61.259469	4.653091	4.413658	7.677128	-11.904741	57.542247	51.822092	62.454573	7.860181	10.596920
0.083333	-3.605257	-3.826790	95.810596	0.091292	0.533598	0.786338	2.901607	1.918598	-4.332033	9.736730	0.169938	31.191124	3.954704	0.000000	4.436808	1.051496	-1.174883	12.491230	0.218013	29.627543	-7.640786	0.000000	0.303520	-0.046665	1.201012	0.563667	-0.062065	1.276075	0.498653	-0.113462	1.276075	0.346893	-0.113462	1.050885	0.281849	-0.095160	0.975822	0.173431	-0.072285	0.900759	2.168014	-0.527888	6.679666	0.000000	0.000000	19.049846	-4.137795	18.229830	2.514226	-8.300480	46.979263	48.721485	61.760064	4.648319	4.562229	7.778972	-11.765100	57.548198	51.763690	62.248338	7.994800	11.348027
0.104167	-3.539909	-3.881569	95.598797	0.091412	0.533477	0.786557	3.004303	1.959845	-4.264366	9.768324	0.170489	31.171032	4.124989	0.000000	4.409927	0.946496	-1.735694	12.340241	0.215378	29.774184	-7.116186	0.000000	0.308306	-0.038614	1.260316	0.572556	-0.051356	1.339086	0.506516	-0.093885	1.339086	0.352363	-0.093885	1.102777	0.286293	-0.078741	1.024007	0.176166	-0.059813	0.945237	2.202201	-0.436806	7.009501	0.000000	0.000000	19.297705	-4.172109	18.089584	2.406341	-8.398500	46.778663	48.834366	62.245592	4.637779	4.648515	7.857707	-11.670229	57.579287	51.729363	61.940459	8.053214	11.998855
